<svg xmlns="http://www.w3.org/2000/svg" viewBox="0.02849999999999997 0.008999999999999422 19.143 19.1625">
  <path d="M 9.2175 0.009 c -0.324 0.0195 -0.5865 0.042 -0.795 0.0675 c -1.4925 0.183 -2.8905 0.7005 -4.14 1.533 c -1.3605 0.906 -2.472 2.1495 -3.219 3.603 c -0.5925 1.1535 -0.9225 2.3235 -1.035 3.675 c -0.0255 0.2895 -0.0255 1.1355 0 1.425 c 0.1125 1.3515 0.4425 2.5215 1.035 3.675 c 0.915 1.782 2.367 3.234 4.149 4.149 c 1.1535 0.5925 2.3235 0.9225 3.675 1.035 c 0.2895 0.0255 1.1355 0.0255 1.425 0 c 1.3515 -0.1125 2.5215 -0.4425 3.675 -1.035 c 1.7805 -0.915 3.234 -2.3685 4.149 -4.149 c 0.5925 -1.1535 0.9225 -2.3235 1.035 -3.675 c 0.0255 -0.2895 0.0255 -1.1355 0 -1.425 c -0.1125 -1.3515 -0.4425 -2.5215 -1.035 -3.675 c -0.915 -1.782 -2.367 -3.234 -4.149 -4.149 c -1.1295 -0.5805 -2.2965 -0.915 -3.585 -1.026 c -0.246 -0.0225 -0.999 -0.0405 -1.185 -0.0285 z m 1.1085 1.1685 c 1.647 0.141 3.1815 0.7485 4.5015 1.782 c 0.6015 0.471 1.206 1.107 1.659 1.743 c 0.897 1.26 1.416 2.6895 1.545 4.26 c 0.024 0.2895 0.024 0.9855 0 1.275 c -0.171 2.0775 -1.0395 3.942 -2.508 5.3865 c -1.44 1.413 -3.258 2.241 -5.286 2.4075 c -0.2895 0.024 -0.9855 0.024 -1.275 0 c -2.028 -0.1665 -3.8415 -0.9915 -5.2845 -2.4075 c -1.4685 -1.44 -2.3415 -3.315 -2.5095 -5.3865 c -0.0225 -0.2895 -0.0225 -0.9855 0 -1.275 c 0.168 -2.076 1.0395 -3.9435 2.517 -5.394 C 4.9935 2.2845 6.663 1.464 8.46 1.224 c 0.624 -0.0825 1.248 -0.099 1.866 -0.0465 z" fill="#000000"/>
</svg>