<svg xmlns="http://www.w3.org/2000/svg" viewBox="0.028700000000000614 0.008900000000000532 19.2044 19.224">
  <path d="M 9.247 0.009 c -0.325 0.0196 -0.5884 0.0421 -0.7975 0.0677 c -1.4973 0.1836 -2.8997 0.7027 -4.1532 1.5379 c -1.3649 0.9089 -2.4799 2.1564 -3.2293 3.6145 c -0.5944 1.1572 -0.9255 2.3309 -1.0383 3.6868 c -0.0256 0.2904 -0.0256 1.1391 0 1.4296 c 0.1129 1.3558 0.4439 2.5296 1.0383 3.6868 c 0.9179 1.7877 2.3746 3.2443 4.1623 4.1623 c 1.1572 0.5944 2.3309 0.9255 3.6868 1.0383 c 0.2904 0.0256 1.1391 0.0256 1.4296 0 c 1.3558 -0.1129 2.5296 -0.4439 3.6868 -1.0383 c 1.7862 -0.9179 3.2443 -2.3761 4.1623 -4.1623 c 0.5944 -1.1572 0.9255 -2.3309 1.0383 -3.6868 c 0.0256 -0.2904 0.0256 -1.1391 0 -1.4296 c -0.1129 -1.3558 -0.4439 -2.5296 -1.0383 -3.6868 c -0.9179 -1.7877 -2.3746 -3.2443 -4.1623 -4.1623 c -1.1331 -0.5824 -2.3038 -0.9179 -3.5965 -1.0293 c -0.2468 -0.0226 -1.0022 -0.0406 -1.1888 -0.0286 z m 1.112 1.1722 c 1.6523 0.1415 3.1917 0.7509 4.5159 1.7877 c 0.6034 0.4725 1.2099 1.1105 1.6643 1.7486 c 0.8999 1.264 1.4205 2.6981 1.5499 4.2736 c 0.0241 0.2904 0.0241 0.9887 0 1.2791 c -0.1715 2.0841 -1.0428 3.9546 -2.516 5.4037 c -1.4446 1.4175 -3.2684 2.2482 -5.3029 2.4152 c -0.2904 0.0241 -0.9887 0.0241 -1.2791 0 c -2.0345 -0.167 -3.8538 -0.9947 -5.3014 -2.4152 c -1.4732 -1.4446 -2.349 -3.3256 -2.5175 -5.4037 c -0.0226 -0.2904 -0.0226 -0.9887 0 -1.2791 c 0.1685 -2.0826 1.0428 -3.9561 2.5251 -5.4113 C 5.0095 2.2918 6.6843 1.4687 8.4871 1.2279 c 0.626 -0.0828 1.252 -0.0993 1.872 -0.0466 z M 9.3945 4.3639 c -0.9014 0.0451 -1.6538 0.2302 -2.3971 0.5884 c -1.0534 0.5086 -1.8073 1.2716 -2.3686 2.3987 c -0.3657 0.7358 -0.5763 1.5033 -0.6425 2.346 c -0.0361 0.4514 -0.0045 1.1361 0.0692 1.568 c 0.1294 0.7449 0.4213 1.4988 0.8006 2.0736 c 0.6576 0.9917 1.7411 1.6703 3.1571 1.9788 c 0.6486 0.1415 1.1993 0.1896 2.0089 0.1776 c 0.5372 -0.0075 0.8051 -0.0301 1.2204 -0.1008 c 0.9902 -0.17 1.8539 -0.5432 2.519 -1.091 c 0.1761 -0.146 0.474 -0.4469 0.6064 -0.614 c 0.1324 -0.167 0.3025 -0.4289 0.4003 -0.614 c 0.0466 -0.0873 0.0843 -0.164 0.0843 -0.1685 c 0 -0.006 -0.2694 -0.0105 -0.5974 -0.009 h -0.5989 l -0.1053 0.1279 c -0.5763 0.7027 -1.4973 1.1647 -2.659 1.3363 c -0.6275 0.0933 -1.571 0.0933 -2.1985 0.0015 c -0.9224 -0.1369 -1.7215 -0.4544 -2.2903 -0.9119 c -0.6004 -0.483 -1.0579 -1.2219 -1.2716 -2.0525 c -0.2423 -0.9435 -0.155 -2.1052 0.2347 -3.1375 c 0.3521 -0.927 0.8893 -1.6192 1.6387 -2.1097 c 0.6064 -0.3973 1.2776 -0.6185 2.1519 -0.7058 c 0.2332 -0.0241 0.8969 -0.0241 1.1286 0 c 0.9887 0.0993 1.7305 0.4183 2.3054 0.9917 c 0.5538 0.5508 0.8638 1.2053 0.939 1.9818 c 0.0241 0.2528 0.0105 0.6726 -0.0316 0.9179 c -0.1655 0.9796 -0.7479 1.878 -1.5108 2.337 c -0.1731 0.1038 -0.3717 0.1655 -0.468 0.1445 c -0.1535 -0.0331 -0.2047 -0.164 -0.1655 -0.4319 c 0.0256 -0.1866 0.0181 -0.146 0.3085 -1.5605 c 0.0587 -0.2859 0.1129 -0.5493 0.1204 -0.5869 s 0.0617 -0.301 0.1204 -0.5869 c 0.0587 -0.2859 0.1129 -0.5493 0.1204 -0.5869 s 0.0617 -0.301 0.1204 -0.5869 c 0.0587 -0.2859 0.1114 -0.5417 0.1159 -0.5688 l 0.009 -0.0482 h -1.4898 l -0.0647 0.2964 c -0.0346 0.164 -0.0677 0.307 -0.0737 0.316 c -0.006 0.012 -0.0406 -0.0226 -0.0918 -0.0948 c -0.2182 -0.3055 -0.5462 -0.5192 -0.936 -0.6125 c -0.1234 -0.0286 -0.1821 -0.0331 -0.4785 -0.0316 c -0.2949 0 -0.3596 0.0045 -0.4966 0.0331 c -0.4861 0.1053 -0.8954 0.3235 -1.261 0.6726 c -0.6034 0.5748 -1.0534 1.4326 -1.2129 2.3099 c -0.0647 0.3506 -0.0888 0.8863 -0.0542 1.1963 c 0.0662 0.5869 0.2709 1.0534 0.6245 1.4205 c 0.301 0.313 0.6591 0.5116 1.0774 0.5974 c 0.1565 0.0316 0.5793 0.0451 0.7374 0.0226 c 0.4394 -0.0632 0.8216 -0.2468 1.1632 -0.5598 c 0.0466 -0.0421 0.0873 -0.0752 0.0888 -0.0722 c 0.0015 0.003 0.0166 0.0436 0.0316 0.0888 c 0.0617 0.1836 0.2107 0.3627 0.3687 0.4439 c 0.1475 0.0737 0.2859 0.1008 0.5688 0.1083 c 1.2354 0.0376 2.2828 -0.5477 3.0502 -1.7064 c 0.6019 -0.9089 0.8382 -1.9307 0.7073 -3.0442 c -0.0888 -0.7554 -0.3732 -1.5003 -0.8006 -2.0977 c -0.7238 -1.0097 -1.9547 -1.6478 -3.4114 -1.7681 c -0.2799 -0.0226 -0.6531 -0.0301 -0.9209 -0.0166 z m 0.0933 3.4234 c 0.3732 0.0782 0.6742 0.3943 0.781 0.8216 c 0.0557 0.2242 0.0707 0.5673 0.0376 0.8683 c -0.0391 0.3642 -0.167 0.8607 -0.3235 1.249 c -0.149 0.3717 -0.2829 0.5839 -0.5161 0.8171 c -0.2332 0.2332 -0.456 0.3506 -0.7479 0.3912 c -0.3235 0.0451 -0.5989 -0.0512 -0.8261 -0.2904 c -0.2272 -0.2378 -0.3386 -0.6064 -0.3386 -1.1241 c 0 -0.6681 0.2423 -1.5665 0.5462 -2.0255 c 0.3551 -0.5372 0.8908 -0.8111 1.3874 -0.7073 z" fill="#000000"/>
</svg>